<?xml version="1.0" encoding="UTF-8"?>
<svg id="Layer_1" data-name="Layer 1" xmlns="http://www.w3.org/2000/svg" viewBox="0 0 1000 1000">
  <defs>
    <style>
      .cls-1 {
        fill: #8c622f;
      }

      .cls-1, .cls-2, .cls-3, .cls-4, .cls-5 {
        stroke-width: 0px;
      }

      .cls-2 {
        fill: #4ab0ff;
      }

      .cls-4 {
        fill: none;
      }

      .cls-5 {
        fill: #fff;
      }
    </style>
  </defs>
  <path class="cls-4" d="M397.19,209.04c-2.73,8.76-5.32,17.53-7.76,26.29"/>
  <g>
    <path class="cls-3" d="M514.24,0v.86c-123.84,0-235.33,74.99-282.16,189.64-6.03,14.65-10.78,29.74-14.37,44.82-24.42,102.87,6.18,212.49,83.33,288.05,86.78,85.05,215.79,110.19,327.99,64.36-13.07,4.89-26.58,7.18-39.8,7.18-42.96,0-83.9-23.99-104.02-64.79-23.85-48.56-10.78-105.88,29.02-139.65,5.6-4.74,11.92-9.19,18.68-12.93,20.26-2.01,39.51-7.18,57.32-15.08,44.68-19.54,80.02-55.74,98.56-100.28,10.63-25.29,15.8-53.16,14.37-82.32C698.28,79.16,615.09,0,514.24,0ZM605.61,223.26c-7.9,0-14.22-6.32-14.22-14.22s6.32-14.22,14.22-14.22,14.22,6.47,14.22,14.22-6.47,14.22-14.22,14.22Z"/>
    <path class="cls-2" d="M724.43,391.64c-46.4,20.69-100.71,8.91-134.19-29.17,44.68-19.54,80.02-55.74,98.56-100.28,31.18,19.11,69.39,22.41,103.44,9.05v.72c6.03,50.43-21.41,98.99-67.81,119.68Z"/>
    <path class="cls-4" d="M688.8,262.19c0-.14-.14-.14-.14-.14"/>
    <path class="cls-1" d="M573.86,994.04c-153.73,30.74-305.58-60.2-351.13-210.04h.29c-54.16-178.87-56.03-369.23-5.32-548.67-24.42,102.87,6.18,212.49,83.33,288.05,86.78,85.05,215.79,110.19,327.99,64.36-13.07,4.89-26.58,7.18-39.8,7.18-42.96,0-83.9-23.99-104.02-64.79-23.85-48.56-10.78-105.88,29.02-139.65,156.6,0,287.77,118.81,303.28,274.84,15.37,155.88-90.08,298.11-243.66,328.71Z"/>
    <path class="cls-5" d="M628.63,209.04c0,12.78-10.46,23.01-23.01,23.01s-23.01-10.23-23.01-23.01,10.23-23.01,23.01-23.01,23.01,10.46,23.01,23.01Z"/>
  </g>
</svg>