<?xml version="1.0" encoding="UTF-8"?>
<svg id="Layer_1" data-name="Layer 1" xmlns="http://www.w3.org/2000/svg" viewBox="0 0 1500 1000">
  <defs>
    <style>
      .cls-1 {
        fill: #8c622f;
      }

      .cls-1, .cls-2, .cls-3, .cls-4, .cls-5 {
        stroke-width: 0px;
      }

      .cls-2, .cls-6 {
        fill: #4ab0ff;
      }

      .cls-4 {
        fill: none;
      }

      .cls-6 {
        font-size: 391.52px;
      }

      .cls-6, .cls-7 {
        font-family: FuturaPT-ExtraBoldObl, 'Futura PT';
        font-style: oblique;
        font-weight: 700;
      }

      .cls-5 {
        fill: #fff;
      }

      .cls-7 {
        font-size: 390.87px;
      }

      .cls-8 {
        letter-spacing: -.01em;
      }
    </style>
  </defs>
  <line class="cls-4" x1="380.69" y1="569.87" x2="385.94" y2="567.8"/>
  <line class="cls-4" x1="347.73" y1="378.46" x2="347.61" y2="378.34"/>
  <path class="cls-4" d="M37.79,248.09c-2.32,7.45-4.52,14.89-6.59,22.34"/>
  <g>
    <path class="cls-3" d="M283.15,70.47v.73c-105.23,0-199.95,63.72-239.75,161.14-5.13,12.45-9.16,25.27-12.21,38.09-20.75,87.4,5.25,180.54,70.8,244.75,73.73,72.27,183.35,93.63,278.69,54.69-11.11,4.15-22.58,6.1-33.81,6.1-36.5,0-71.29-20.39-88.38-55.05-20.26-41.26-9.16-89.97,24.66-118.65,4.76-4.03,10.13-7.81,15.87-10.99,17.21-1.71,33.57-6.1,48.71-12.82,37.96-16.6,67.99-47.36,83.74-85.21,9.03-21.48,13.43-45.17,12.21-69.95-4.15-85.57-74.83-152.83-160.52-152.83ZM360.79,260.17c-6.71,0-12.08-5.37-12.08-12.08s5.37-12.08,12.08-12.08,12.09,5.49,12.09,12.08-5.49,12.08-12.09,12.08Z"/>
    <path class="cls-2" d="M461.75,403.24c-39.43,17.58-85.57,7.57-114.01-24.78,37.96-16.6,67.99-47.36,83.74-85.21,26.49,16.24,58.96,19.04,87.89,7.69v.61c5.13,42.85-18.19,84.11-57.62,101.69Z"/>
    <path class="cls-4" d="M431.47,293.26c0-.12-.12-.12-.12-.12"/>
    <path class="cls-1" d="M333.81,915.09c-130.62,26.12-259.65-51.15-298.34-178.47h.24c-46.02-151.98-47.61-313.72-4.52-466.19-20.75,87.4,5.25,180.54,70.8,244.75,73.73,72.27,183.35,93.63,278.69,54.69-11.11,4.15-22.58,6.1-33.81,6.1-36.5,0-71.29-20.39-88.38-55.05-20.26-41.26-9.16-89.97,24.66-118.65,133.06,0,244.51,100.95,257.69,233.52,13.06,132.45-76.54,253.3-207.03,279.3Z"/>
    <path class="cls-5" d="M380.35,248.09c0,10.86-8.89,19.55-19.55,19.55s-19.55-8.69-19.55-19.55,8.69-19.55,19.55-19.55,19.55,8.89,19.55,19.55Z"/>
  </g>
  <text class="cls-6" transform="translate(555.07 398.18)"><tspan class="cls-8" x="0" y="0">L</tspan><tspan x="202.81" y="0">UE</tspan></text>
  <text class="cls-7" transform="translate(557.63 822.43)"><tspan x="0" y="0">UILD</tspan></text>
</svg>